<svg version="1.1" id="Layer_1" xmlns="http://www.w3.org/2000/svg" xmlns:xlink="http://www.w3.org/1999/xlink" x="0px" y="0px"
	 width="100%" viewBox="0 0 512 512" enable-background="new 0 0 512 512" xml:space="preserve">
<path fill="#D2F0FF" opacity="1.000000" stroke="none" 
	d="
M238.000000,513.000000 
	C237.250000,513.000000 236.500000,513.000000 235.082397,512.713745 
	C224.287125,510.953247 214.074722,509.907227 204.048035,507.922852 
	C176.450562,502.461121 150.612793,492.274078 126.406746,477.932617 
	C99.409599,461.937500 76.328934,441.465637 56.596882,417.125641 
	C41.542446,398.555634 29.377789,378.238220 20.238018,356.185333 
	C11.509456,335.124664 5.345984,313.325043 2.879625,290.568329 
	C2.459280,286.689850 1.636737,282.855011 1.000000,279.000000 
	C1.000000,264.645782 1.000000,250.291550 1.286283,235.176041 
	C3.046723,224.287216 4.092811,214.074966 6.077107,204.048370 
	C11.538735,176.450851 21.725819,150.613068 36.067215,126.406990 
	C52.062263,99.409775 72.534225,76.329094 96.874229,56.597004 
	C115.444252,41.542542 135.761627,29.377783 157.814575,20.238035 
	C178.875305,11.509501 200.674942,5.345979 223.431686,2.879630 
	C227.310135,2.459289 231.145004,1.636738 235.000000,1.000000 
	C249.354233,1.000000 263.708466,1.000000 278.823944,1.286268 
	C289.712799,3.046708 299.925140,4.092809 309.951782,6.077123 
	C337.549286,11.538786 363.387024,21.725836 387.593079,36.067245 
	C414.590240,52.062317 437.670959,72.534210 457.403015,96.874245 
	C472.457428,115.444298 484.622192,135.761658 493.761993,157.814545 
	C502.490570,178.875244 508.654144,200.674911 511.120331,223.431686 
	C511.540680,227.310135 512.363281,231.145004 513.000000,235.000000 
	C513.000000,249.354233 513.000000,263.708466 512.713684,278.823914 
	C511.545044,286.465881 510.662720,293.346649 509.462982,300.116180 
	C507.896057,298.915100 506.576904,297.894897 505.407013,296.725372 
	C440.356445,231.694229 375.319153,166.649765 310.274048,101.613159 
	C308.648621,99.987930 306.950165,98.435730 304.828735,96.815933 
	C298.794037,97.690163 293.206207,98.539536 287.640472,99.515099 
	C248.680374,106.344063 209.724792,113.198891 170.767868,120.045883 
	C149.501297,123.783653 128.234894,127.522308 106.665436,131.313812 
	C106.545311,132.990509 106.349388,134.450851 106.349121,135.911240 
	C106.334343,216.032272 106.326920,296.153290 106.399231,376.274261 
	C106.400711,377.918976 107.347412,379.562836 107.941803,381.529755 
	C109.349220,383.338501 110.595306,384.897186 111.997299,386.300079 
	C152.707169,427.036102 193.435959,467.753204 234.141327,508.493744 
	C235.534912,509.888550 236.718506,511.493195 238.000000,513.000000 
z"/>
<path fill="#73C8F0" opacity="1.000000" stroke="none" 
	d="
M305.285767,96.849472 
	C306.950165,98.435730 308.648621,99.987930 310.274048,101.613159 
	C375.319153,166.649765 440.356445,231.694229 505.407013,296.725372 
	C506.576904,297.894897 507.896057,298.915100 509.441162,300.490051 
	C509.460663,302.096313 509.094910,303.203796 508.921722,304.340637 
	C505.623199,325.994598 498.273468,346.441589 489.019104,366.077271 
	C478.139069,389.162323 464.054657,410.252594 446.684723,429.169159 
	C422.875061,455.098816 395.278931,475.601379 363.242004,490.244049 
	C342.005005,499.950562 319.983765,506.814545 296.868042,510.175690 
	C291.227692,510.995850 285.621765,512.052246 280.000000,513.000000 
	C266.312439,513.000000 252.624878,513.000000 238.468658,513.000000 
	C236.718506,511.493195 235.534912,509.888550 234.141327,508.493744 
	C193.435959,467.753204 152.707169,427.036102 111.997299,386.300079 
	C110.595306,384.897186 109.349220,383.338501 108.363831,381.466980 
	C123.415024,383.676117 138.130295,386.285431 152.851181,388.862549 
	C196.532806,396.509674 240.215256,404.151978 283.901093,411.775024 
	C290.715363,412.964111 297.548889,414.042633 305.187256,415.306976 
	C305.187256,412.452850 305.187256,410.346649 305.187256,408.240448 
	C305.187286,321.770081 305.182007,235.299728 305.191711,148.829376 
	C305.193665,131.502747 305.252930,114.176109 305.285767,96.849472 
M407.170074,260.496521 
	C407.170074,252.549591 407.170074,244.602676 407.170074,236.008545 
	C400.617004,236.008545 394.649567,235.687561 388.734192,236.104706 
	C383.502991,236.473618 383.756989,232.280502 382.188263,229.465393 
	C380.748627,226.882004 380.394836,224.677124 382.991638,222.408066 
	C387.603851,218.377930 391.994049,214.093765 396.915558,209.507294 
	C390.117737,202.742828 384.181580,196.722778 378.111176,190.841293 
	C374.925842,187.755112 371.472473,182.566360 368.200134,182.612183 
	C364.866119,182.658875 361.199890,187.631485 358.411316,191.045380 
	C354.548492,195.774445 350.915680,197.456375 345.045319,194.120880 
	C342.136871,192.468292 340.837952,191.209320 340.992126,187.873840 
	C341.258545,182.109619 341.066010,176.324173 341.066010,170.373871 
	C334.396240,170.373871 328.377502,170.373871 322.003021,170.373871 
	C322.003021,187.114487 322.045288,203.417603 321.962799,219.720078 
	C321.948517,222.547760 323.469025,222.763046 325.704620,223.066422 
	C341.416595,225.198761 354.588745,237.556854 354.585449,256.004089 
	C354.582184,274.420532 341.465881,286.871979 325.686981,288.878845 
	C322.502625,289.283875 321.934387,290.525360 321.954651,293.288452 
	C322.048737,306.113159 321.995697,318.938965 321.995361,331.764374 
	C321.995270,335.034760 321.995331,338.305145 321.995331,341.750488 
	C328.625244,341.750488 334.527588,341.750488 341.065948,341.750488 
	C341.065948,337.172424 341.502625,332.835938 340.964874,328.623840 
	C340.132019,322.100433 342.009583,318.103119 348.792053,316.361176 
	C351.366028,315.700043 352.909241,315.360626 354.829132,317.458801 
	C358.311340,321.264343 361.962280,324.942383 365.825897,328.352905 
	C366.769257,329.185638 369.521637,329.514587 370.237000,328.824951 
	C378.957947,320.417450 387.453735,311.776337 396.807007,302.394287 
	C391.992096,297.906158 387.652313,293.559113 382.984436,289.598816 
	C378.724213,285.984375 382.622162,282.981567 383.298523,279.751984 
	C383.896393,276.897247 385.704193,275.813507 388.731628,275.926422 
	C394.667755,276.147797 400.617950,275.991455 407.170471,275.991455 
	C407.170471,270.724579 407.170471,266.109772 407.170074,260.496521 
M330.224640,240.062363 
	C327.708038,239.275894 325.191437,238.489410 322.259827,237.573242 
	C322.259827,250.312042 322.259827,261.897125 322.259827,273.448608 
	C329.158844,274.276581 335.710541,269.742737 338.318817,262.552429 
	C341.473938,253.854675 338.775421,245.816406 330.224640,240.062363 
z"/>
<path fill="#FFFFFF" opacity="1.000000" stroke="none" 
	d="
M280.468658,513.000000 
	C285.621765,512.052246 291.227692,510.995850 296.868042,510.175690 
	C319.983765,506.814545 342.005005,499.950562 363.242004,490.244049 
	C395.278931,475.601379 422.875061,455.098816 446.684723,429.169159 
	C464.054657,410.252594 478.139069,389.162323 489.019104,366.077271 
	C498.273468,346.441589 505.623199,325.994598 508.921722,304.340637 
	C509.094910,303.203796 509.460663,302.096313 509.758545,300.601257 
	C510.662720,293.346649 511.545044,286.465881 512.713684,279.292572 
	C513.000000,356.926880 513.000000,434.853760 513.000000,513.000000 
	C435.645905,513.000000 358.291626,513.000000 280.468658,513.000000 
z"/>
<path fill="#FFFFFF" opacity="1.000000" stroke="none" 
	d="
M234.531342,1.000000 
	C231.145004,1.636738 227.310135,2.459289 223.431686,2.879630 
	C200.674942,5.345979 178.875305,11.509501 157.814575,20.238035 
	C135.761627,29.377783 115.444252,41.542542 96.874229,56.597004 
	C72.534225,76.329094 52.062263,99.409775 36.067215,126.406990 
	C21.725819,150.613068 11.538735,176.450851 6.077107,204.048370 
	C4.092811,214.074966 3.046723,224.287216 1.286283,234.707382 
	C1.000000,157.072952 1.000000,79.145912 1.000000,1.000000 
	C78.687424,1.000000 156.375061,1.000000 234.531342,1.000000 
z"/>
<path fill="#FFFFFF" opacity="1.000000" stroke="none" 
	d="
M513.000000,234.531342 
	C512.363281,231.145004 511.540680,227.310135 511.120331,223.431686 
	C508.654144,200.674911 502.490570,178.875244 493.761993,157.814545 
	C484.622192,135.761658 472.457428,115.444298 457.403015,96.874245 
	C437.670959,72.534210 414.590240,52.062317 387.593079,36.067245 
	C363.387024,21.725836 337.549286,11.538786 309.951782,6.077123 
	C299.925140,4.092809 289.712799,3.046708 279.292603,1.286268 
	C356.927032,1.000000 434.854095,1.000000 513.000000,1.000000 
	C513.000000,78.687424 513.000000,156.375061 513.000000,234.531342 
z"/>
<path fill="#FFFFFF" opacity="1.000000" stroke="none" 
	d="
M1.000000,279.468658 
	C1.636737,282.855011 2.459280,286.689850 2.879625,290.568329 
	C5.345984,313.325043 11.509456,335.124664 20.238018,356.185333 
	C29.377789,378.238220 41.542446,398.555634 56.596882,417.125641 
	C76.328934,441.465637 99.409599,461.937500 126.406746,477.932617 
	C150.612793,492.274078 176.450562,502.461121 204.048035,507.922852 
	C214.074722,509.907227 224.287125,510.953247 234.707397,512.713745 
	C157.072968,513.000000 79.145927,513.000000 1.000000,513.000000 
	C1.000000,435.312561 1.000000,357.624939 1.000000,279.468658 
z"/>
<path fill="#1F74BE" opacity="1.000000" stroke="none" 
	d="
M304.828705,96.815933 
	C305.252930,114.176109 305.193665,131.502747 305.191711,148.829376 
	C305.182007,235.299728 305.187286,321.770081 305.187256,408.240448 
	C305.187256,410.346649 305.187256,412.452850 305.187256,415.306976 
	C297.548889,414.042633 290.715363,412.964111 283.901093,411.775024 
	C240.215256,404.151978 196.532806,396.509674 152.851181,388.862549 
	C138.130295,386.285431 123.415024,383.676117 108.275162,381.144318 
	C107.347412,379.562836 106.400711,377.918976 106.399231,376.274261 
	C106.326920,296.153290 106.334343,216.032272 106.349121,135.911240 
	C106.349388,134.450851 106.545311,132.990509 106.665436,131.313812 
	C128.234894,127.522308 149.501297,123.783653 170.767868,120.045883 
	C209.724792,113.198891 248.680374,106.344063 287.640472,99.515099 
	C293.206207,98.539536 298.794037,97.690163 304.828705,96.815933 
M191.426224,200.730072 
	C177.114075,238.265717 162.801926,275.801361 148.253784,313.955933 
	C155.430099,313.955933 161.735931,313.819183 168.030930,314.021057 
	C170.672180,314.105713 171.848297,313.116241 172.679321,310.732513 
	C175.251053,303.355591 178.166855,296.096588 180.643906,288.689728 
	C181.595718,285.843658 182.950150,284.886780 185.961105,284.939850 
	C196.786255,285.130737 207.619919,285.159302 218.443481,284.927460 
	C221.728226,284.857086 223.032059,286.064545 224.048660,289.000549 
	C226.926437,297.311707 230.137802,305.507324 233.201447,313.704773 
	C240.883224,313.704773 248.300934,313.704773 256.320557,313.704773 
	C251.803085,301.830322 247.439285,290.372864 243.084976,278.911743 
	C233.401993,253.424957 223.759583,227.922577 213.963211,202.479446 
	C213.307709,200.776947 211.607727,198.385666 210.210388,198.253677 
	C204.926758,197.754593 199.564865,197.972031 194.239441,198.143738 
	C193.401413,198.170746 192.600449,199.346848 191.426224,200.730072 
z"/>
<path fill="#1E73BE" opacity="1.000000" stroke="none" 
	d="
M407.170288,260.995728 
	C407.170471,266.109772 407.170471,270.724579 407.170471,275.991455 
	C400.617950,275.991455 394.667755,276.147797 388.731628,275.926422 
	C385.704193,275.813507 383.896393,276.897247 383.298523,279.751984 
	C382.622162,282.981567 378.724213,285.984375 382.984436,289.598816 
	C387.652313,293.559113 391.992096,297.906158 396.807007,302.394287 
	C387.453735,311.776337 378.957947,320.417450 370.237000,328.824951 
	C369.521637,329.514587 366.769257,329.185638 365.825897,328.352905 
	C361.962280,324.942383 358.311340,321.264343 354.829132,317.458801 
	C352.909241,315.360626 351.366028,315.700043 348.792053,316.361176 
	C342.009583,318.103119 340.132019,322.100433 340.964874,328.623840 
	C341.502625,332.835938 341.065948,337.172424 341.065948,341.750488 
	C334.527588,341.750488 328.625244,341.750488 321.995331,341.750488 
	C321.995331,338.305145 321.995270,335.034760 321.995361,331.764374 
	C321.995697,318.938965 322.048737,306.113159 321.954651,293.288452 
	C321.934387,290.525360 322.502625,289.283875 325.686981,288.878845 
	C341.465881,286.871979 354.582184,274.420532 354.585449,256.004089 
	C354.588745,237.556854 341.416595,225.198761 325.704620,223.066422 
	C323.469025,222.763046 321.948517,222.547760 321.962799,219.720078 
	C322.045288,203.417603 322.003021,187.114487 322.003021,170.373871 
	C328.377502,170.373871 334.396240,170.373871 341.066010,170.373871 
	C341.066010,176.324173 341.258545,182.109619 340.992126,187.873840 
	C340.837952,191.209320 342.136871,192.468292 345.045319,194.120880 
	C350.915680,197.456375 354.548492,195.774445 358.411316,191.045380 
	C361.199890,187.631485 364.866119,182.658875 368.200134,182.612183 
	C371.472473,182.566360 374.925842,187.755112 378.111176,190.841293 
	C384.181580,196.722778 390.117737,202.742828 396.915558,209.507294 
	C391.994049,214.093765 387.603851,218.377930 382.991638,222.408066 
	C380.394836,224.677124 380.748627,226.882004 382.188263,229.465393 
	C383.756989,232.280502 383.502991,236.473618 388.734192,236.104706 
	C394.649567,235.687561 400.617004,236.008545 407.170074,236.008545 
	C407.170074,244.602676 407.170074,252.549591 407.170288,260.995728 
z"/>
<path fill="#1F74BF" opacity="1.000000" stroke="none" 
	d="
M330.557739,240.244232 
	C338.775421,245.816406 341.473938,253.854675 338.318817,262.552429 
	C335.710541,269.742737 329.158844,274.276581 322.259827,273.448608 
	C322.259827,261.897125 322.259827,250.312042 322.259827,237.573242 
	C325.191437,238.489410 327.708038,239.275894 330.557739,240.244232 
z"/>
<path fill="#FCFDFE" opacity="1.000000" stroke="none" 
	d="
M191.604279,200.360855 
	C192.600449,199.346848 193.401413,198.170746 194.239441,198.143738 
	C199.564865,197.972031 204.926758,197.754593 210.210388,198.253677 
	C211.607727,198.385666 213.307709,200.776947 213.963211,202.479446 
	C223.759583,227.922577 233.401993,253.424957 243.084976,278.911743 
	C247.439285,290.372864 251.803085,301.830322 256.320557,313.704773 
	C248.300934,313.704773 240.883224,313.704773 233.201447,313.704773 
	C230.137802,305.507324 226.926437,297.311707 224.048660,289.000549 
	C223.032059,286.064545 221.728226,284.857086 218.443481,284.927460 
	C207.619919,285.159302 196.786255,285.130737 185.961105,284.939850 
	C182.950150,284.886780 181.595718,285.843658 180.643906,288.689728 
	C178.166855,296.096588 175.251053,303.355591 172.679321,310.732513 
	C171.848297,313.116241 170.672180,314.105713 168.030930,314.021057 
	C161.735931,313.819183 155.430099,313.955933 148.253784,313.955933 
	C162.801926,275.801361 177.114075,238.265717 191.604279,200.360855 
M209.228439,243.232819 
	C207.072754,237.076874 204.917068,230.920944 202.400345,223.733978 
	C196.693787,239.360733 191.369690,253.940201 185.958298,268.758667 
	C196.863495,268.758667 207.315262,268.758667 218.212204,268.758667 
	C215.212097,260.173859 212.377792,252.063568 209.228439,243.232819 
z"/>
<path fill="#2175BF" opacity="1.000000" stroke="none" 
	d="
M209.385956,243.593048 
	C212.377792,252.063568 215.212097,260.173859 218.212204,268.758667 
	C207.315262,268.758667 196.863495,268.758667 185.958298,268.758667 
	C191.369690,253.940201 196.693787,239.360733 202.400345,223.733978 
	C204.917068,230.920944 207.072754,237.076874 209.385956,243.593048 
z"/>
</svg>